# xmcd CD database file
#
# Track frame offsets:
#	150
#	35637
#	60982
#
# Disc length: 1113 seconds
#
# Revision: 2
# Processed by: cddbd v1.5.2PL0 Copyright (c) Steve Scherf et al.
# Submitted via: CDex 1.70beta2
#
DISCID=1e045703
DTITLE=中原めいこ - Meiko's Special Party Versions
DYEAR=1989
DGENRE=JPop
TTITLE0=ファンキー・クリスマス
TTITLE1=エモーション
TTITLE2=ジェミニ
EXTD=YEAR: 1989
EXTT0=
EXTT1=
EXTT2=
PLAYORDER=
